<?xml version="1.0" encoding="UTF-8" standalone="no"?>
<!-- Created with Inkscape (http://www.inkscape.org/) -->

<svg
   version="1.1"
   id="svg2"
   width="275.28"
   height="56.693333"
   viewBox="0 0 275.28 56.693333"
   sodipodi:docname="fh_kiel_logo_deut_negativ.eps"
   xmlns:inkscape="http://www.inkscape.org/namespaces/inkscape"
   xmlns:sodipodi="http://sodipodi.sourceforge.net/DTD/sodipodi-0.dtd"
   xmlns="http://www.w3.org/2000/svg"
   xmlns:svg="http://www.w3.org/2000/svg">
  <defs
     id="defs6" />
  <sodipodi:namedview
     id="namedview4"
     pagecolor="#ffffff"
     bordercolor="#000000"
     borderopacity="0.25"
     inkscape:showpageshadow="2"
     inkscape:pageopacity="0.0"
     inkscape:pagecheckerboard="0"
     inkscape:deskcolor="#d1d1d1" />
  <g
     id="g8"
     inkscape:groupmode="layer"
     inkscape:label="ink_ext_XXXXXX"
     transform="matrix(1.3333333,0,0,-1.3333333,0,56.693333)">
    <g
       id="g10"
       transform="scale(0.1)">
      <path
         d="M 85.0391,170.09 H 0 V 85.0391 H 85.0391 L 170.082,170.09 v 85.027 L 85.0391,170.09"
         style="fill:#ffffff;fill-opacity:1;fill-rule:nonzero;stroke:none"
         id="path12" />
      <path
         d="M 255.117,85.0586 V 170.09 L 170.078,85.0586 H 85.0391 V 0 h 85.0389 l 85.039,85.0586"
         style="fill:#ffffff;fill-opacity:1;fill-rule:nonzero;stroke:none"
         id="path14" />
      <path
         d="M 170.082,425.195 85.043,340.156 H 0 v -85.051 h 85.043 l 85.039,85.051 v 85.039"
         style="fill:#ffffff;fill-opacity:1;fill-rule:nonzero;stroke:none"
         id="path16" />
      <path
         d="m 340.156,425.195 -85.039,-85.039 h -85.035 v -85.051 h 85.035 l 85.039,85.051 v 85.039"
         style="fill:#ffffff;fill-opacity:1;fill-rule:nonzero;stroke:none"
         id="path18" />
      <path
         d="m 425.195,255.105 v 85.051 l -85.039,-85.051 h -85.039 v -85.027 h 85.039 l 85.039,85.027"
         style="fill:#ffffff;fill-opacity:1;fill-rule:nonzero;stroke:none"
         id="path20" />
      <path
         d="M 425.195,85.0586 V 170.09 L 340.156,85.0586 H 255.117 V 0.0195313 h 85.039 L 425.195,85.0586"
         style="fill:#ffffff;fill-opacity:1;fill-rule:nonzero;stroke:none"
         id="path22" />
      <path
         d="m 532.949,228.477 c 0,-3.008 -0.488,-3.528 -3.34,-3.528 h -15.781 c -2.828,0 -3.519,0.52 -3.519,3.528 v 107.832 c 0,3.015 0.691,3.515 3.519,3.515 h 55.02 c 3.34,0 4.179,-0.332 4.179,-1.836 0,-0.84 -0.156,-1.172 -0.488,-2.343 l -3.199,-11.243 c -0.672,-2.507 -2.5,-2.683 -3.852,-2.683 h -32.539 v -27.668 h 28.52 c 3,0 3.511,-0.496 3.511,-3.524 v -11.062 c 0,-3.02 -0.66,-3.527 -3.511,-3.527 h -28.52 v -47.461"
         style="fill:#ffffff;fill-opacity:1;fill-rule:nonzero;stroke:none"
         id="path24" />
      <path
         d="m 633.555,222.781 c -0.68,-0.164 -1.5,-0.672 -2.188,-0.672 -1.504,0 -4.023,5.86 -4.863,10.059 -3.359,-3.352 -9.219,-10.059 -21.797,-10.059 -15.43,0 -25.152,10.059 -25.152,25.821 0,28.34 30.519,28.34 43.769,28.34 v 5.203 c 0,7.55 -1.351,12.414 -11.918,12.414 -9.371,0 -18.613,-5.039 -20.781,-5.039 -0.84,0 -1.5,1.015 -1.68,1.679 l -3.359,10.235 c -0.332,0.664 -0.512,1.336 -0.512,2.011 0,3.848 16.602,7.879 29.531,7.879 20.961,0 28.829,-9.558 28.829,-27 v -32.375 c 0,-16.257 4.379,-18.437 4.379,-21.785 0,-0.676 -0.688,-1.172 -1.528,-1.523 z m -10.231,39.739 c -4.199,0 -23.66,1.347 -23.66,-13.411 0,-6.543 4.711,-11.406 11.082,-11.406 6.207,0 10.559,4.367 12.578,6.379 v 18.438"
         style="fill:#ffffff;fill-opacity:1;fill-rule:nonzero;stroke:none"
         id="path26" />
      <path
         d="m 721.563,232.676 c 0.171,-0.508 0.511,-1.172 0.511,-1.68 0,-4.023 -13.601,-8.887 -23.66,-8.887 -23.301,0 -37.223,14.258 -37.223,42.598 0,28.34 14.262,45.945 39.082,45.945 9.04,0 23.809,-5.027 23.809,-10.23 0,-0.5 -0.328,-1.008 -0.508,-1.504 l -6.211,-10.91 c -0.332,-0.332 -0.66,-0.832 -1.172,-0.832 -1.679,0 -7.207,6.711 -15.918,6.711 -11.41,0 -16.441,-8.731 -16.441,-28.008 0,-18.449 4.352,-26.992 17.281,-26.992 8.539,0 11.891,5.683 14.922,5.683 0.508,0 0.84,-0.324 1.168,-0.832 l 4.36,-11.062"
         style="fill:#ffffff;fill-opacity:1;fill-rule:nonzero;stroke:none"
         id="path28" />
      <path
         d="m 804.063,227.305 c 0,-1.844 -0.352,-2.344 -2.36,-2.344 h -16.609 c -2.012,0 -2.34,0.5 -2.34,2.344 v 51.66 c 0,6.367 -0.84,14.082 -9.391,14.082 -7.031,0 -12.07,-5.039 -14.261,-7.051 v -58.691 c 0,-1.844 -0.329,-2.344 -2.348,-2.344 h -16.602 c -2.007,0 -2.339,0.5 -2.339,2.344 V 340 c 0,2.508 1.171,2.508 3.179,3.016 l 14.09,2.843 c 0.5,0 2.012,0.508 2.34,0.508 1.351,0 1.68,-0.664 1.68,-3.515 v -41.758 c 4.531,3.691 11.25,9.558 23.14,9.558 17.781,0 21.821,-11.902 21.821,-26.504 v -56.843"
         style="fill:#ffffff;fill-opacity:1;fill-rule:nonzero;stroke:none"
         id="path30" />
      <path
         d="m 894.082,227.305 c 0,-1.844 -0.332,-2.344 -2.34,-2.344 h -16.609 c -2.012,0 -2.36,0.5 -2.36,2.344 v 51.66 c 0,6.367 -0.839,14.082 -9.371,14.082 -7.05,0 -12.089,-5.039 -14.261,-7.051 v -58.691 c 0,-1.844 -0.328,-2.344 -2.348,-2.344 h -16.602 c -2.027,0 -2.359,0.5 -2.359,2.344 V 340 c 0,2.508 1.172,2.508 3.18,3.016 l 14.109,2.843 c 0.481,0 2.012,0.508 2.34,0.508 1.352,0 1.68,-0.664 1.68,-3.515 v -41.758 c 4.531,3.691 11.23,9.558 23.14,9.558 17.782,0 21.801,-11.902 21.801,-26.504 v -56.843"
         style="fill:#ffffff;fill-opacity:1;fill-rule:nonzero;stroke:none"
         id="path32" />
      <path
         d="m 946.211,222.109 c -22.641,0 -36.41,17.274 -36.41,44.278 0,26.992 13.769,44.258 36.41,44.258 22.461,0 36.391,-17.266 36.391,-44.258 0,-27.004 -13.75,-44.278 -36.391,-44.278 m 13.75,44.278 c 0,15.586 -2.188,27.5 -13.75,27.5 -11.582,0 -13.75,-11.914 -13.75,-27.5 0,-15.606 2.012,-27.5 13.75,-27.5 11.738,0 13.75,11.738 13.75,27.5"
         style="fill:#ffffff;fill-opacity:1;fill-rule:nonzero;stroke:none"
         id="path34" />
      <path
         d="m 1057.03,232.676 c 0.16,-0.508 0.49,-1.172 0.49,-1.68 0,-4.023 -13.58,-8.887 -23.63,-8.887 -23.32,0 -37.23,14.258 -37.23,42.598 0,28.34 14.24,45.945 39.06,45.945 9.06,0 23.81,-5.027 23.81,-10.23 0,-0.5 -0.33,-1.008 -0.49,-1.504 l -6.21,-10.91 c -0.33,-0.332 -0.66,-0.832 -1.17,-0.832 -1.68,0 -7.21,6.711 -15.94,6.711 -11.4,0 -16.42,-8.731 -16.42,-28.008 0,-18.449 4.35,-26.992 17.26,-26.992 8.56,0 11.92,5.683 14.92,5.683 0.51,0 0.84,-0.324 1.18,-0.832 l 4.37,-11.062"
         style="fill:#ffffff;fill-opacity:1;fill-rule:nonzero;stroke:none"
         id="path36" />
      <path
         d="m 1139.51,227.305 c 0,-1.844 -0.33,-2.344 -2.34,-2.344 h -16.61 c -2.01,0 -2.36,0.5 -2.36,2.344 v 51.66 c 0,6.367 -0.84,14.082 -9.37,14.082 -7.05,0 -12.09,-5.039 -14.26,-7.051 v -58.691 c 0,-1.844 -0.33,-2.344 -2.34,-2.344 h -16.61 c -2.03,0 -2.36,0.5 -2.36,2.344 V 340 c 0,2.508 1.17,2.508 3.18,3.016 l 14.11,2.843 c 0.48,0 2.01,0.508 2.34,0.508 1.35,0 1.68,-0.664 1.68,-3.515 v -41.758 c 4.53,3.691 11.23,9.558 23.14,9.558 17.78,0 21.8,-11.902 21.8,-26.504 v -56.843"
         style="fill:#ffffff;fill-opacity:1;fill-rule:nonzero;stroke:none"
         id="path38" />
      <path
         d="m 1207.56,291.035 c -0.33,-0.84 -1.17,-1.515 -1.33,-1.515 -0.51,0 -8.73,4.367 -19.45,4.367 -6.39,0 -11.08,-2.356 -11.08,-8.047 0,-9.063 15.1,-8.391 27,-16.27 6.54,-4.367 11.25,-10.742 11.25,-20.461 0,-15.429 -10.92,-27 -28.7,-27 -12.4,0 -31.52,6.368 -31.52,10.899 0,0.508 0.68,1.512 0.84,2.187 l 3.69,9.551 c 0.33,0.84 0.67,1.512 1.35,1.512 0.66,0 13.57,-7.371 23.98,-7.371 5.53,0 10.22,2.343 10.22,8.379 0,9.726 -16.43,9.726 -27.5,17.109 -5.02,3.348 -9.88,9.219 -9.88,18.945 0,15.254 11.56,27.332 29.66,27.332 10.24,0 26.18,-4.375 26.18,-8.211 0,-0.507 -0.51,-1.515 -0.84,-2.187 l -3.87,-9.219"
         style="fill:#ffffff;fill-opacity:1;fill-rule:nonzero;stroke:none"
         id="path40" />
      <path
         d="m 1286.86,232.676 c 0.17,-0.508 0.51,-1.172 0.51,-1.68 0,-4.023 -13.59,-8.887 -23.66,-8.887 -23.3,0 -37.23,14.258 -37.23,42.598 0,28.34 14.27,45.945 39.09,45.945 9.05,0 23.81,-5.027 23.81,-10.23 0,-0.5 -0.33,-1.008 -0.51,-1.504 l -6.19,-10.91 c -0.34,-0.332 -0.68,-0.832 -1.18,-0.832 -1.68,0 -7.22,6.711 -15.93,6.711 -11.41,0 -16.43,-8.731 -16.43,-28.008 0,-18.449 4.36,-26.992 17.27,-26.992 8.55,0 11.89,5.683 14.92,5.683 0.51,0 0.84,-0.324 1.17,-0.832 l 4.36,-11.062"
         style="fill:#ffffff;fill-opacity:1;fill-rule:nonzero;stroke:none"
         id="path42" />
      <path
         d="m 1369.36,227.305 c 0,-1.844 -0.36,-2.344 -2.36,-2.344 h -16.61 c -2.02,0 -2.34,0.5 -2.34,2.344 v 51.66 c 0,6.367 -0.84,14.082 -9.39,14.082 -7.03,0 -12.07,-5.039 -14.27,-7.051 v -58.691 c 0,-1.844 -0.32,-2.344 -2.34,-2.344 h -16.61 c -2,0 -2.33,0.5 -2.33,2.344 V 340 c 0,2.508 1.17,2.508 3.17,3.016 l 14.1,2.843 c 0.49,0 2.01,0.508 2.35,0.508 1.34,0 1.66,-0.664 1.66,-3.515 v -41.758 c 4.54,3.691 11.25,9.558 23.14,9.558 17.79,0 21.83,-11.902 21.83,-26.504 v -56.843"
         style="fill:#ffffff;fill-opacity:1;fill-rule:nonzero;stroke:none"
         id="path44" />
      <path
         d="m 1444.61,222.617 c -1,-0.344 -1.83,-0.508 -2.52,-0.508 -2.17,0 -3.52,3.172 -5.35,9.895 -4.53,-4.027 -12.42,-9.895 -25.66,-9.895 -9.22,0 -21.8,4.2 -21.8,24.481 v 57.687 c 0,2.344 1.17,2.52 3.18,3.028 l 14.08,2.851 c 0.51,0 2.19,0.496 2.7,0.496 0.99,0 1.33,-0.672 1.33,-3.523 v -53.32 c 0,-6.379 0.84,-14.094 9.39,-14.094 7.05,0 12.58,3.691 14.77,5.207 v 59.355 c 0,2.344 1.17,2.52 3.18,3.028 l 14.08,2.851 c 0.51,0 2.19,0.496 2.85,0.496 0.85,0 1.18,-0.672 1.18,-3.523 v -52.324 c 0,-23.633 3.18,-22.305 3.18,-26.153 0,-0.832 -0.66,-1.515 -1.84,-1.847 l -12.75,-4.188"
         style="fill:#ffffff;fill-opacity:1;fill-rule:nonzero;stroke:none"
         id="path46" />
      <path
         d="m 1516.19,228.145 c 0.18,-0.84 0.33,-0.84 0.33,-1.34 0,-2.352 -8.88,-4.696 -16.93,-4.696 -20.63,0 -20.63,16.934 -20.63,32.364 V 340 c 0,2.52 1.18,2.52 3.19,3.016 l 14.08,2.843 c 0.51,0 2.01,0.508 2.36,0.508 1.33,0 1.66,-0.664 1.66,-3.515 v -91.399 c 0,-5.359 0,-10.058 4.71,-10.058 3.36,0 5.53,1.515 6.54,1.515 0.67,0 1.18,-0.344 1.33,-1.015 l 3.36,-13.75"
         style="fill:#ffffff;fill-opacity:1;fill-rule:nonzero;stroke:none"
         id="path48" />
      <path
         d="m 1591.64,233.848 c 0.33,-0.508 0.51,-1.172 0.51,-1.856 0,-4.347 -16.78,-9.883 -30.02,-9.883 -22.13,0 -37.56,12.579 -37.56,43.438 0,26.66 14.24,45.105 36.72,45.105 28.51,0 33.53,-25.496 33.53,-45.781 0,-3.191 -0.66,-4.187 -3.84,-4.187 h -45.12 c 0,-9.395 2.68,-20.969 18.46,-20.969 12.07,0 18.94,5.539 21.3,5.539 0.83,0 1.49,-0.676 1.82,-1.348 z m -19.45,42.422 c 0,6.875 -0.51,18.789 -12.07,18.789 -13.09,0 -13.75,-14.082 -14.26,-18.789 h 26.33"
         style="fill:#ffffff;fill-opacity:1;fill-rule:nonzero;stroke:none"
         id="path50" />
      <path
         d="m 1661.37,228.477 c 0,-3.008 -0.66,-3.528 -3.51,-3.528 h -15.61 c -2.84,0 -3.52,0.52 -3.52,3.528 v 107.832 c 0,3.015 0.68,3.515 3.52,3.515 h 15.61 c 2.85,0 3.51,-0.5 3.51,-3.515 v -46.954 h 0.33 l 36.9,51.153 c 0.51,0.84 1.84,2.168 2.86,2.168 0.83,0 1.67,-0.664 3,-1.328 l 11.41,-5.703 c 1.01,-0.508 2.19,-1.524 2.19,-2.012 0,-1.68 -0.67,-2.024 -1.18,-2.695 l -35.74,-47.11 39.44,-48.976 c 0.5,-0.672 1.17,-1.004 1.17,-2.684 0,-0.496 -1.17,-1.504 -2.19,-2.012 l -13.42,-6.699 c -1.33,-0.676 -2.17,-1.348 -3.01,-1.348 -1.01,0 -2.34,1.348 -2.85,2.188 l -38.58,51.308 h -0.33 v -47.128"
         style="fill:#ffffff;fill-opacity:1;fill-rule:nonzero;stroke:none"
         id="path52" />
      <path
         d="m 1759.95,227.305 c 0,-1.844 -0.33,-2.344 -2.34,-2.344 h -16.6 c -2.02,0 -2.37,0.5 -2.37,2.344 v 64.902 h -12.91 c -2.01,0 -2.34,0.508 -2.34,2.344 v 10.898 c 0,1.856 0.33,2.352 2.34,2.352 h 31.88 c 2.01,0 2.34,-0.496 2.34,-2.352 z m -10.74,91.394 c -7.72,0 -13.91,6.203 -13.91,13.918 0,7.715 6.19,13.75 13.91,13.75 7.56,0 13.75,-6.035 13.75,-13.75 0,-7.715 -6.19,-13.918 -13.75,-13.918"
         style="fill:#ffffff;fill-opacity:1;fill-rule:nonzero;stroke:none"
         id="path54" />
      <path
         d="m 1844.44,233.848 c 0.34,-0.508 0.51,-1.172 0.51,-1.856 0,-4.347 -16.78,-9.883 -30.02,-9.883 -22.13,0 -37.56,12.579 -37.56,43.438 0,26.66 14.26,45.105 36.72,45.105 28.52,0 33.54,-25.496 33.54,-45.781 0,-3.191 -0.67,-4.187 -3.85,-4.187 h -45.12 c 0,-9.395 2.7,-20.969 18.44,-20.969 12.09,0 18.96,5.539 21.31,5.539 0.84,0 1.5,-0.676 1.85,-1.348 z m -19.45,42.422 c 0,6.875 -0.51,18.789 -12.07,18.789 -13.09,0 -13.75,-14.082 -14.26,-18.789 h 26.33"
         style="fill:#ffffff;fill-opacity:1;fill-rule:nonzero;stroke:none"
         id="path56" />
      <path
         d="m 1902.45,228.145 c 0.18,-0.84 0.33,-0.84 0.33,-1.34 0,-2.352 -8.88,-4.696 -16.93,-4.696 -20.63,0 -20.63,16.934 -20.63,32.364 V 340 c 0,2.52 1.18,2.52 3.19,3.016 l 14.08,2.843 c 0.51,0 2.01,0.508 2.34,0.508 1.35,0 1.68,-0.664 1.68,-3.515 v -91.399 c 0,-5.359 0,-10.058 4.71,-10.058 3.34,0 5.53,1.515 6.54,1.515 0.67,0 1.18,-0.344 1.33,-1.015 l 3.36,-13.75"
         style="fill:#ffffff;fill-opacity:1;fill-rule:nonzero;stroke:none"
         id="path58" />
      <path
         d="m 553.137,148.008 c 0.086,0.195 0.086,0.379 0.086,0.566 0,0.653 -0.278,0.852 -0.938,0.852 h -5.074 c -0.746,0 -1.215,-0.285 -1.406,-1.133 l -5.731,-26.691 h -21.519 l 5.64,26.406 c 0.086,0.195 0.086,0.476 0.086,0.664 0,0.555 -0.277,0.754 -0.937,0.754 h -5.082 c -0.746,0 -1.215,-0.285 -1.407,-1.133 L 503.707,86.4531 c -0.102,-0.1953 -0.102,-0.3672 -0.102,-0.5664 0,-0.6523 0.286,-0.8476 0.942,-0.8476 h 5.078 c 0.75,0 1.219,0.2812 1.41,1.1328 l 6.199,29.1411 h 21.52 l -6.113,-28.8599 c 0,-0.1953 -0.086,-0.4687 -0.086,-0.6601 0,-0.5586 0.277,-0.7539 0.941,-0.7539 h 5.067 c 0.761,0 1.234,0.2812 1.414,1.1328 z m 26.039,-16.535 c -16.184,0 -24.063,-16.629 -24.063,-32.0472 0,-11.1953 5.438,-15.6953 14.18,-15.6953 15.988,0 24.254,16.9145 24.254,31.8635 0,10.715 -5.442,15.879 -14.371,15.879 m 7.242,-15.985 c 0,-10.234 -4.801,-25.6638 -15.992,-25.6638 -5.832,0 -8.18,3.5742 -8.18,9.7735 0,10.9103 4.516,25.7733 15.891,25.7733 4.797,0 8.281,-2.82 8.281,-9.883 m 40.879,-21.7185 c -0.192,0.293 -0.473,0.3789 -0.754,0.3789 -1.23,0 -4.516,-3.8554 -10.719,-3.8554 -5.922,0 -8.461,3.6718 -8.461,9.2187 0,10.7223 4.981,25.6723 16.364,25.6723 2.718,0 4.316,-0.567 6.289,-1.329 0.937,-0.359 1.976,-1.218 2.816,-1.218 0.383,0 0.664,0.379 0.941,0.859 l 1.7,2.715 c 0.281,0.379 0.562,0.937 0.562,1.504 0,1.316 -5.551,3.758 -11.562,3.758 -15.789,0 -24.239,-16.453 -24.239,-32.0472 0,-9.7891 4.129,-15.6953 13.239,-15.6953 7.992,0 15.511,4.6875 15.511,6.0039 0,0.2734 -0.277,0.5586 -0.277,0.7422 z m 9.305,-7.5117 c -0.086,-0.1719 -0.086,-0.4648 -0.086,-0.6445 0,-0.3789 0.277,-0.5742 0.75,-0.5742 h 4.886 c 0.754,0 0.946,0.2812 1.133,0.9453 l 4.317,20.4886 c 1.324,6.211 6.863,18.711 17.023,18.711 2.82,0 4.227,-1.414 4.227,-4.043 0,-1.219 -0.289,-2.539 -0.567,-3.758 l -6.582,-31.1252 c -0.086,-0.1719 -0.086,-0.4648 -0.086,-0.6445 0,-0.3789 0.278,-0.5742 0.746,-0.5742 h 4.895 c 0.746,0 0.933,0.2812 1.125,0.9453 l 6.66,31.3986 c 0.383,2.16 0.941,4.316 0.941,6.582 0,4.969 -3.66,7.508 -8.539,7.508 -8.375,0 -13.539,-5.067 -17.019,-9.961 l -0.192,0.187 c 1.231,2.918 1.7,5.067 2.168,7.051 l 4.981,23.586 c 0.094,0.465 0,0.758 -0.66,0.758 -0.379,0 -0.66,-0.196 -0.848,-0.196 l -4.703,-1.132 c -0.649,-0.184 -0.84,-0.938 -0.938,-1.493 z m 75.472,40.7072 c 0.09,0.183 0.192,0.465 0.192,0.75 0,1.601 -5.172,3.758 -10.711,3.758 -8.379,0 -15.602,-4.981 -15.602,-13.805 0,-11.574 14.66,-10.922 14.66,-20.0391 0,-4.6992 -3.859,-7.6211 -8.191,-7.6211 -7.035,0 -10.699,3.3906 -11.824,3.3906 -0.477,0 -0.754,-0.2734 -1.032,-0.9375 l -1.515,-3.2031 c -0.086,-0.2734 -0.363,-0.6562 -0.363,-1.1133 0,-1.3203 6.195,-4.414 13.519,-4.414 9.598,0 16.535,5.7226 16.535,15.2226 0,3.9379 -1.496,6.4769 -4.121,8.8279 -4.035,3.77 -10.535,5.645 -10.535,10.727 0,4.043 3.109,6.676 7.91,6.676 5.156,0 7.406,-2.071 8.352,-2.071 0.656,0 0.933,0.383 1.218,0.852 z m 31.864,-33.1955 c -0.184,0.293 -0.477,0.3789 -0.754,0.3789 -1.219,0 -4.512,-3.8554 -10.707,-3.8554 -5.934,0 -8.461,3.6718 -8.461,9.2187 0,10.7223 4.976,25.6723 16.351,25.6723 2.731,0 4.324,-0.567 6.297,-1.329 0.938,-0.359 1.969,-1.218 2.816,-1.218 0.383,0 0.661,0.379 0.946,0.859 l 1.687,2.715 c 0.282,0.379 0.575,0.937 0.575,1.504 0,1.316 -5.555,3.758 -11.575,3.758 -15.793,0 -24.238,-16.453 -24.238,-32.0472 0,-9.7891 4.133,-15.6953 13.246,-15.6953 7.992,0 15.516,4.6875 15.516,6.0039 0,0.2734 -0.293,0.5586 -0.293,0.7422 z m 9.316,-7.5117 c -0.09,-0.1719 -0.09,-0.4648 -0.09,-0.6445 0,-0.3789 0.277,-0.5742 0.754,-0.5742 h 4.887 c 0.75,0 0.941,0.2812 1.129,0.9453 l 4.32,20.4886 c 1.32,6.211 6.859,18.711 17.012,18.711 2.816,0 4.226,-1.414 4.226,-4.043 0,-1.219 -0.277,-2.539 -0.558,-3.758 l -6.579,-31.1252 c -0.093,-0.1719 -0.093,-0.4648 -0.093,-0.6445 0,-0.3789 0.285,-0.5742 0.754,-0.5742 h 4.89 c 0.746,0 0.938,0.2812 1.117,0.9453 l 6.672,31.3986 c 0.371,2.16 0.938,4.316 0.938,6.582 0,4.969 -3.656,7.508 -8.551,7.508 -8.359,0 -13.531,-5.067 -17.008,-9.961 l -0.187,0.187 c 1.218,2.918 1.687,5.067 2.156,7.051 l 4.988,23.586 c 0.094,0.465 0,0.758 -0.656,0.758 -0.383,0 -0.66,-0.196 -0.852,-0.196 l -4.703,-1.132 c -0.656,-0.184 -0.84,-0.938 -0.933,-1.493 z m 86.281,44.4572 c 0,0.465 0.09,0.758 -0.664,0.758 -0.375,0 -0.656,-0.196 -0.848,-0.196 l -4.699,-1.121 c -0.656,-0.195 -0.84,-0.945 -0.941,-1.504 l -4.317,-19.933 c -0.933,-4.324 -1.683,-8.653 -5.074,-13.0667 -1.601,-2.0664 -6.39,-5.6445 -11,-5.6445 -3.199,0 -4.801,1.9844 -4.801,5.2735 0,1.6914 0.661,4.0429 1.032,5.7347 l 6.125,29.699 c 0.086,0.465 0.086,0.758 -0.664,0.758 -0.379,0 -0.661,-0.196 -0.852,-0.196 l -4.695,-1.121 c -0.66,-0.195 -0.852,-0.945 -0.946,-1.504 l -6.289,-29.609 c -0.468,-1.8867 -0.839,-3.7617 -0.839,-5.4571 0,-6.6601 4.695,-9.8554 9.101,-9.8554 8.191,0 13.082,4.5 16.461,8.8203 l 0.191,-0.1875 c -0.093,-0.832 -0.371,-2.2461 -0.371,-3.5625 0,-2.0742 1.118,-4.418 1.965,-4.418 0.371,0 0.754,0.2852 1.317,0.4688 l 3.378,1.4062 c 0.379,0.0977 0.848,0.3828 0.848,0.7617 -0.57,1.9727 -1.23,3.75 -1.23,5.7344 0,1.4922 0.382,3.0938 0.66,4.5977 z m 22.457,-40.2384 c -0.09,0.4687 -0.277,0.664 -0.66,0.664 -0.746,0 -2.348,-1.5976 -4.789,-1.5976 -1.688,0 -2.73,0.75 -2.73,3.0937 0,2.1758 0.753,7.0508 1.32,9.5003 l 10.621,50.199 c 0,0.465 0,0.758 -0.66,0.758 -0.371,0 -0.66,-0.196 -0.84,-0.196 l -4.699,-1.132 c -0.664,-0.184 -0.848,-0.938 -0.942,-1.493 l -10.238,-48.136 c -0.383,-1.875 -1.691,-7.6175 -1.691,-11.2776 0,-4.6992 3.101,-7.1289 7.597,-7.1289 3.762,0 8.375,1.6797 8.375,3.0937 0,0.2735 -0.191,0.7422 -0.191,1.0274 z m 36.668,3.7695 c -0.187,0.2852 -0.469,0.5664 -0.84,0.5664 -1.316,0 -5.078,-4.5195 -13.445,-4.5195 -6.121,0 -8.75,3.6718 -8.75,10.352 0,0.761 0.09,1.503 0.09,2.351 8.277,0.098 28.957,0.098 28.957,16.445 0,6.965 -4.035,12.032 -12.399,12.032 -14.019,0 -23.777,-14.571 -23.777,-30.547 0,-10.4494 4.602,-17.1955 15.219,-17.1955 9.117,0 17.39,5.5273 17.39,6.6601 0,0.1953 -0.089,0.2852 -0.191,0.4688 z m -22.183,14.5629 c 1.027,4.609 4.035,16.843 14.757,16.843 4.61,0 6.871,-2.539 6.871,-6.492 0,-10.351 -16.46,-10.351 -21.628,-10.351 m 81.957,15.898 c 0.66,0 0.847,0.281 1.23,1.133 l 0.84,2.254 c 0.469,1.308 0.469,1.308 0.469,1.496 0,0.371 -0.282,0.566 -0.746,0.566 h -13.254 l 1.687,8.172 c 0.754,3.488 1.223,9.328 7.805,9.328 4.14,0 7.519,-2.265 8.359,-2.265 0.289,0 0.571,0.285 0.66,0.468 l 1.688,4.043 c 0,0.086 0.101,0.176 0.101,0.282 0,1.117 -5.359,2.91 -10.062,2.91 -12.398,0 -13.996,-8.641 -15.125,-13.914 l -1.883,-9.024 h -6.582 c -0.84,0 -1.027,-0.285 -1.219,-1.133 l -0.468,-2.257 c -0.278,-1.305 -0.278,-1.305 -0.278,-1.493 0,-0.371 0.278,-0.566 0.746,-0.566 h 6.582 l -8.082,-41.9257 c -0.66,-3.4844 -2.156,-10.9063 -9.867,-10.9063 -2.73,0 -5.449,0.8477 -5.832,0.8477 -0.281,0 -0.558,-0.293 -0.648,-0.5743 l -1.325,-3.8398 c -0.085,-0.1836 -0.085,-0.4688 -0.085,-0.6523 0,-1.1329 4.039,-1.7891 7.136,-1.7891 14.106,0 16.442,10.9883 17.485,16.5351 l 7.988,42.3047 z m 40.511,6.008 c 0,0.465 0.098,0.758 -0.648,0.758 -0.383,0 -0.664,-0.196 -0.852,-0.196 l -4.703,-1.121 c -0.656,-0.195 -0.847,-0.945 -0.941,-1.504 l -4.317,-19.933 c -0.929,-4.324 -1.687,-8.653 -5.074,-13.0667 -1.594,-2.0664 -6.394,-5.6445 -10.992,-5.6445 -3.203,0 -4.801,1.9844 -4.801,5.2735 0,1.6914 0.656,4.0429 1.024,5.7347 l 6.125,29.699 c 0.086,0.465 0.086,0.758 -0.661,0.758 -0.378,0 -0.66,-0.196 -0.847,-0.196 l -4.703,-1.121 c -0.66,-0.195 -0.852,-0.945 -0.938,-1.504 L 960.32,99.043 c -0.465,-1.8867 -0.84,-3.7617 -0.84,-5.4571 0,-6.6601 4.696,-9.8554 9.106,-9.8554 8.187,0 13.078,4.5 16.457,8.8203 l 0.191,-0.1875 c -0.093,-0.832 -0.371,-2.2461 -0.371,-3.5625 0,-2.0742 1.121,-4.418 1.973,-4.418 0.367,0 0.746,0.2852 1.309,0.4688 l 3.378,1.4062 c 0.372,0.0977 0.84,0.3828 0.84,0.7617 -0.562,1.9727 -1.218,3.75 -1.218,5.7344 0,1.4922 0.378,3.0938 0.656,4.5977 z m -17.949,13.074 c 0,2.629 -2.164,4.785 -4.789,4.785 -2.633,0 -4.789,-2.156 -4.789,-4.785 0,-2.629 2.156,-4.785 4.789,-4.785 2.625,0 4.789,2.059 4.789,4.785 m 17.195,0 c 0,2.629 -2.156,4.785 -4.789,4.785 -2.617,0 -4.781,-2.156 -4.781,-4.785 0,-2.629 2.164,-4.785 4.781,-4.785 2.633,0 4.789,2.059 4.789,4.785 m 6.879,-56.6796 c -0.28,-1.3164 -0.28,-1.3164 -0.28,-1.4961 0,-0.3789 0.28,-0.5742 0.75,-0.5742 h 4.88 c 0.76,0 0.94,0.2812 1.13,0.9453 l 4.32,20.4886 c 0.84,4.043 1.79,7.902 4.52,11.933 1.4,2.071 5.44,6.496 8.93,6.496 2.15,0 2.35,-0.566 2.99,-0.566 0.29,0 0.47,0.184 0.66,0.652 l 1.88,4.328 c 0.19,0.36 0.28,0.645 0.28,0.938 0,0.644 -2.05,1.219 -3.57,1.219 -5.26,0 -10.81,-4.707 -13.05,-9.493 l -0.19,0.188 c 0.27,0.754 0.27,1.602 0.27,2.539 0,3.75 -0.84,6.766 -1.69,6.766 -0.37,0 -0.94,-0.293 -1.22,-0.379 l -3.75,-1.59 c -0.38,-0.188 -0.93,-0.57 -0.93,-1.137 0,-0.75 0.93,-2.82 0.93,-6.57 0,-2.813 -0.47,-4.328 -1.04,-7.149 z m 77.35,23.5816 h -16.45 l 10.62,20.879 c 1.13,2.16 3.01,6.856 3.76,8.926 h 0.19 c 0,-2.344 0,-5.547 0.29,-8.926 z m -35.34,-23.5816 c -0.19,-0.3828 -0.37,-0.6563 -0.37,-1.125 0,-0.75 0.28,-0.9453 0.84,-0.9453 h 4.9 c 0.55,0 0.66,0.1953 1.12,0.9453 l 9.31,18.4296 h 20.1 l 1.5,-18.2421 c 0,-0.8516 0.3,-1.1328 1.04,-1.1328 h 5.73 c 0.57,0 0.85,0.0976 0.85,0.4687 0,0.1953 0,0.4766 -0.1,0.9453 l -5.82,61.7499 c -0.18,1.133 -0.29,1.223 -1.32,1.223 h -4.69 c -0.84,0 -1.14,-0.199 -1.51,-0.84 z m 54.8,-0.8516 c -0.09,-0.1719 -0.09,-0.4648 -0.09,-0.6445 0,-0.3789 0.29,-0.5742 0.75,-0.5742 h 4.89 c 0.75,0 0.94,0.2812 1.13,0.9453 l 4.32,20.4886 c 1.31,6.211 6.86,18.711 17.01,18.711 2.82,0 4.25,-1.414 4.25,-4.043 0,-1.219 -0.3,-2.539 -0.58,-3.758 l -6.58,-31.1252 c -0.1,-0.1719 -0.1,-0.4648 -0.1,-0.6445 0,-0.3789 0.28,-0.5742 0.76,-0.5742 h 4.89 c 0.76,0 0.94,0.2812 1.13,0.9453 l 6.66,31.3986 c 0.48,2.16 0.94,4.316 0.94,6.582 0,4.969 -3.66,7.508 -8.55,7.508 -8.36,0 -13.54,-5.067 -17.02,-9.961 h -0.19 c 0,0.851 0.29,2.343 0.29,4.23 0,2.91 -1.03,5.731 -1.79,5.731 -0.37,0 -0.75,-0.293 -1.3,-0.465 l -3.38,-1.418 c -0.38,-0.086 -0.86,-0.379 -0.86,-0.75 0.38,-1.875 0.76,-3.75 0.76,-5.625 0,-1.32 -0.28,-3.391 -0.66,-5.363 z m 81.21,29.8052 c 0.46,2.433 0.66,5.156 3.66,9.386 0.66,1.035 1.69,1.688 1.69,2.352 0,0.285 -0.19,0.469 -0.37,0.656 l -2.64,2.441 c -0.27,0.196 -0.37,0.282 -0.84,0.282 -1.31,0 -3.2,-2.528 -4.05,-4.129 -1.97,1.512 -5.92,4.422 -10.98,4.422 -16.09,0 -21.81,-20.77 -21.81,-32.6253 0,-8.1719 3.67,-13.8086 10.61,-13.8086 7.14,0 11.47,6.1914 13.72,9.7734 l 0.2,-0.1953 c -2.17,-8.4453 -1.61,-23.0274 -13.35,-23.0274 -6.85,0 -12.03,4.043 -13.62,4.043 -0.29,0 -0.66,-0.2812 -0.75,-0.5664 l -1.6,-4.0312 c -0.09,-0.3829 -0.38,-0.9454 -0.38,-1.2227 0,-0.8477 8.55,-4.5117 15.51,-4.5117 7.79,0 15.97,3.664 17.66,12.9687 1.13,6.4961 3.1,16.3477 4.51,24.2505 z m -8.37,-7.715 c -1.59,-7.047 -6.87,-17.0199 -15.04,-17.0199 -3.39,0 -4.8,3.2891 -4.8,7.8985 0,6.7814 3.67,20.0314 7.62,23.6954 1.31,1.226 2.35,2.262 6.11,2.262 4.98,0 8.08,-2.735 8.93,-3.485 z m 44.56,-14.1019 c -0.19,0.2852 -0.47,0.5664 -0.85,0.5664 -1.32,0 -5.08,-4.5195 -13.44,-4.5195 -6.12,0 -8.75,3.6718 -8.75,10.352 0,0.761 0.09,1.503 0.09,2.351 8.28,0.098 28.95,0.098 28.95,16.445 0,6.965 -4.03,12.032 -12.39,12.032 -14.02,0 -23.79,-14.571 -23.79,-30.547 0,-10.4494 4.61,-17.1955 15.23,-17.1955 9.12,0 17.39,5.5273 17.39,6.6601 0,0.1953 -0.09,0.2852 -0.19,0.4688 z m -22.2,14.5629 c 1.05,4.609 4.05,16.843 14.78,16.843 4.6,0 6.86,-2.539 6.86,-6.492 0,-10.351 -16.46,-10.351 -21.64,-10.351 m 66.74,20.593 c -0.08,0.559 -0.19,0.754 -0.74,0.754 h -3.75 c -0.76,0 -0.95,-0.195 -1.22,-0.754 l -15.24,-31.0153 c -0.95,-1.9687 -1.61,-3.4765 -1.88,-4.6094 h -0.19 c 0,1.3204 0.19,4.5157 0.19,6.3007 l 0.47,29.793 c 0,0.656 -0.2,0.938 -0.66,0.938 -0.19,0 -0.38,0 -0.57,-0.094 l -4.88,-1.039 c -0.47,0 -0.94,-0.184 -0.94,-0.848 v -0.84 l 1.42,-42.7536 c 0,-0.6641 0.27,-0.8516 0.84,-0.8516 h 3.56 c 0.76,0 0.84,0.1875 1.12,0.7539 l 14.58,28.3863 c 1.14,2.247 1.88,4.133 2.26,5.54 h 0.19 c 0,-1.973 0.09,-3.575 0.09,-5.54 l 1.03,-28.2886 c 0,-0.5664 0.29,-0.8516 0.76,-0.8516 h 3.66 c 0.75,0 0.93,0.1875 1.22,0.7539 l 21.15,43.2223 c 0.09,0.196 0.18,0.379 0.18,0.664 0,0.274 -0.18,0.469 -0.56,0.567 l -4.61,1.125 c -0.18,0 -0.37,0.094 -0.56,0.094 -0.37,0 -0.47,-0.184 -0.66,-0.567 l -13.24,-30.8162 c -0.85,-1.8867 -1.88,-4.4258 -2.36,-6.0195 h -0.19 z m 52.74,-21.054 c -1.59,-7.43 -6.86,-18.3402 -14.86,-18.3402 -4.32,0 -5.73,3.293 -5.73,7.9024 0,8.1838 4.51,27.2738 14.86,27.2738 4.51,0 7.61,-3.204 8.45,-4.043 z m 11.08,20.207 c 0.1,0.468 0.19,0.742 0.19,1.035 0,0.281 -0.36,0.566 -0.75,0.566 h -4.14 c -0.56,0 -0.75,-0.566 -0.84,-0.859 l -1.31,-2.891 c -1.79,2.051 -3.75,5.067 -9.87,5.067 -15.24,0 -22.09,-21.707 -22.09,-33.9457 0,-8.164 3.67,-13.7968 10.62,-13.7968 7.81,0 12.42,6.375 14.68,10.039 l 0.19,-0.1757 c -0.38,-0.6641 -0.38,-2.2657 -0.38,-4.1407 0,-2.9101 1.03,-5.7226 1.77,-5.7226 0.38,0 0.76,0.2812 1.33,0.457 l 3.38,1.418 c 0.37,0.0976 0.83,0.3789 0.83,0.7422 -0.37,1.8828 -0.75,3.7578 -0.75,5.6445 0,2.1562 0.56,5.918 0.85,7.4336 z m 5.75,-42.2972 c -0.09,-0.1719 -0.09,-0.4648 -0.09,-0.6445 0,-0.3789 0.28,-0.5742 0.75,-0.5742 h 4.89 c 0.75,0 0.93,0.2812 1.12,0.9453 l 4.32,20.4886 c 1.31,6.211 6.87,18.711 17.03,18.711 2.81,0 4.22,-1.414 4.22,-4.043 0,-1.219 -0.28,-2.539 -0.56,-3.758 l -6.58,-31.1252 c -0.1,-0.1719 -0.1,-0.4648 -0.1,-0.6445 0,-0.3789 0.28,-0.5742 0.76,-0.5742 h 4.88 c 0.76,0 0.95,0.2812 1.14,0.9453 l 6.66,31.3986 c 0.46,2.16 0.93,4.316 0.93,6.582 0,4.969 -3.66,7.508 -8.54,7.508 -8.37,0 -13.54,-5.067 -17.02,-9.961 h -0.19 c 0,0.851 0.28,2.343 0.28,4.23 0,2.91 -1.03,5.731 -1.78,5.731 -0.38,0 -0.74,-0.293 -1.32,-0.465 l -3.37,-1.418 c -0.38,-0.086 -0.84,-0.379 -0.84,-0.75 0.36,-1.875 0.74,-3.75 0.74,-5.625 0,-1.32 -0.28,-3.391 -0.66,-5.363 z m 72.93,21.0552 c -1.96,-9.4028 -7.41,-17.3052 -15.23,-17.3052 -3.95,0 -5.17,3.207 -5.17,7.9883 0,9.9729 3.57,27.1879 15.33,27.1879 4.14,0 5.92,-1.414 8.26,-2.821 z m 4.51,21.054 c -2.07,1.223 -4.88,3.106 -9.86,3.106 -15.24,0 -22.19,-17.762 -22.19,-33.8441 0,-9.3086 3.85,-13.8984 10.62,-13.8984 7.44,0 11.94,5.6328 14.67,9.5703 h 0.19 c 0,-0.832 0,-1.582 0.1,-3.1836 0,-2.9219 1.03,-5.7344 1.78,-5.7344 0.37,0 0.75,0.2852 1.32,0.4688 l 3.37,1.4062 c 0.38,0.0977 0.94,0.3828 0.94,0.7617 0,0.6563 -0.94,3 -0.94,5.6485 0,2.2422 0.19,4.7812 0.56,6.7578 l 11.29,52.9102 c 0.08,0.465 0,0.758 -0.67,0.758 -0.37,0 -0.65,-0.196 -0.84,-0.196 l -4.7,-1.132 c -0.65,-0.184 -0.84,-0.938 -0.94,-1.493 z m 34.96,-36.7576 c -0.1,0.4687 -0.27,0.664 -0.65,0.664 -1.32,0 -4.23,-2.7304 -8.74,-2.7304 -3.11,0 -4.43,0.9336 -4.43,4.4218 0,1.125 0.2,3.293 0.47,4.6954 l 5.56,26.0468 h 11.55 c 0.75,0 0.95,0.098 1.22,0.754 l 1.51,3.102 c 0.18,0.46 0.38,0.753 0.38,1.027 0,0.281 -0.29,0.566 -0.76,0.566 h -12.79 l 3.02,13.907 c 0.1,0.378 0.18,0.75 0.18,1.035 0,0.285 -0.08,0.566 -0.55,0.566 -0.2,0 -0.48,-0.09 -0.67,-0.09 l -4.98,-1.414 c -0.66,-0.187 -0.76,-0.383 -0.93,-1.035 l -2.74,-12.969 h -6.84 c -0.85,0 -1.05,-0.285 -1.22,-1.133 l -0.47,-2.257 c -0.3,-1.305 -0.3,-1.305 -0.3,-1.493 0,-0.371 0.3,-0.566 0.77,-0.566 h 6.84 l -5.54,-26.0468 c -0.28,-1.5039 -0.84,-4.043 -0.84,-5.5352 0,-6.1992 3.38,-9.3945 8.35,-9.3945 6.12,0 13.27,2.3437 13.27,4.2187 0,0.2813 -0.2,0.75 -0.2,1.0352 z m 37.98,2.6367 c -0.18,0.2852 -0.47,0.5664 -0.84,0.5664 -1.32,0 -5.08,-4.5195 -13.45,-4.5195 -6.1,0 -8.75,3.6718 -8.75,10.352 0,0.761 0.1,1.503 0.1,2.351 8.27,0.098 28.96,0.098 28.96,16.445 0,6.965 -4.05,12.032 -12.41,12.032 -14,0 -23.78,-14.571 -23.78,-30.547 0,-10.4494 4.6,-17.1955 15.23,-17.1955 9.11,0 17.38,5.5273 17.38,6.6601 0,0.1953 -0.09,0.2852 -0.17,0.4688 z m -22.19,14.5629 c 1.04,4.609 4.05,16.843 14.77,16.843 4.61,0 6.86,-2.539 6.86,-6.492 0,-10.351 -16.45,-10.351 -21.63,-10.351 m 93.63,39.578 c 0,0.84 -0.39,1.039 -1.31,1.039 h -4.23 c -0.75,0 -1.04,-0.09 -1.42,-0.942 l -19.28,-46.726 c -1.03,-2.4338 -2.44,-7.2385 -3.19,-10.3322 l -0.18,0.1836 c 0.29,1.9765 0.93,7.9883 1.03,10.1486 l 2.26,46.914 c 0,0.754 0,1.406 -0.67,1.406 -0.28,0 -0.55,-0.098 -0.84,-0.098 l -4.6,-0.937 c -0.38,-0.09 -0.75,-0.188 -1.02,-0.371 -0.3,-0.188 -0.3,-0.664 -0.3,-1.32 l -1.22,-61.6489 c 0,-1.0351 0.1,-1.3203 1.22,-1.3203 h 5.64 c 0.94,0 1.22,0.2852 1.79,1.7891 l 19.83,49.9021 0.2,-0.187 -2.64,-50.4651 c 0,-0.8516 0.38,-1.0391 1.33,-1.0391 h 5.34 c 0.65,0 1.22,0.1875 1.59,0.9375 l 25.76,62.0317 c 0.2,0.382 0.37,0.753 0.37,1.132 0,0.274 -0.37,0.469 -0.84,0.559 l -3.94,0.848 c -0.38,0.089 -0.75,0.187 -1.13,0.187 -0.38,0 -0.76,-0.469 -0.94,-1.035 l -18.61,-47.754 c -1.23,-3.0077 -2.16,-6.6718 -2.73,-9.2109 l -0.19,0.1953 c 0.29,1.7774 0.76,7.1407 0.84,9.0156 z m 40.23,-21.336 c 0.19,1.043 0.48,1.789 0.48,2.351 0,0.657 -0.2,0.754 -1.51,0.754 h -12.5 c -0.66,0 -0.93,-0.383 -1.13,-1.035 l -0.65,-3 c -0.1,-0.379 -0.1,-0.574 -0.1,-0.75 0,-0.383 0.1,-0.664 0.75,-0.664 h 7.43 l -8.08,-38.0664 c -0.1,-0.2851 -0.2,-0.7539 -0.2,-1.1328 0,-0.2734 0.38,-0.4687 0.95,-0.4687 h 4.98 c 0.95,0 1.03,1.0468 1.22,1.8867 z m 5.82,20.117 c 0,2.82 -2.43,5.262 -5.25,5.262 -2.91,0 -5.27,-2.442 -5.27,-5.262 0,-2.91 2.36,-5.254 5.27,-5.254 2.82,0 5.25,2.344 5.25,5.254 m 31.11,-20.203 c 0.1,0.183 0.2,0.465 0.2,0.75 0,1.601 -5.18,3.758 -10.71,3.758 -8.37,0 -15.61,-4.981 -15.61,-13.805 0,-11.574 14.68,-10.922 14.68,-20.0391 0,-4.6992 -3.87,-7.6211 -8.2,-7.6211 -7.04,0 -10.71,3.3906 -11.83,3.3906 -0.48,0 -0.75,-0.2734 -1.04,-0.9375 l -1.5,-3.2031 c -0.1,-0.2734 -0.37,-0.6562 -0.37,-1.1133 0,-1.3203 6.19,-4.414 13.52,-4.414 9.59,0 16.55,5.7226 16.55,15.2226 0,3.9379 -1.51,6.4769 -4.13,8.8279 -4.05,3.77 -10.54,5.645 -10.54,10.727 0,4.043 3.1,6.676 7.9,6.676 5.17,0 7.42,-2.071 8.37,-2.071 0.64,0 0.94,0.383 1.22,0.852 z m 34.78,0 c 0.1,0.183 0.2,0.465 0.2,0.75 0,1.601 -5.18,3.758 -10.72,3.758 -8.36,0 -15.59,-4.981 -15.59,-13.805 0,-11.574 14.67,-10.922 14.67,-20.0391 0,-4.6992 -3.87,-7.6211 -8.21,-7.6211 -7.02,0 -10.69,3.3906 -11.83,3.3906 -0.46,0 -0.75,-0.2734 -1.02,-0.9375 l -1.51,-3.2031 c -0.09,-0.2734 -0.38,-0.6562 -0.38,-1.1133 0,-1.3203 6.2,-4.414 13.53,-4.414 9.59,0 16.55,5.7226 16.55,15.2226 0,3.9379 -1.51,6.4769 -4.14,8.8279 -4.03,3.77 -10.53,5.645 -10.53,10.727 0,4.043 3.1,6.676 7.91,6.676 5.16,0 7.42,-2.071 8.36,-2.071 0.64,0 0.94,0.383 1.21,0.852 z m 35.09,-32.7189 c -0.2,0.2852 -0.47,0.5664 -0.84,0.5664 -1.33,0 -5.08,-4.5195 -13.46,-4.5195 -6.12,0 -8.76,3.6718 -8.76,10.352 0,0.761 0.1,1.503 0.1,2.351 8.29,0.098 28.95,0.098 28.95,16.445 0,6.965 -4.04,12.032 -12.4,12.032 -14.01,0 -23.77,-14.571 -23.77,-30.547 0,-10.4494 4.59,-17.1955 15.22,-17.1955 9.12,0 17.4,5.5273 17.4,6.6601 0,0.1953 -0.1,0.2852 -0.2,0.4688 z m -22.22,14.5629 c 1.04,4.609 4.05,16.843 14.79,16.843 4.59,0 6.86,-2.539 6.86,-6.492 0,-10.351 -16.46,-10.351 -21.65,-10.351 m 33.68,-22.5512 c -0.1,-0.1719 -0.1,-0.4648 -0.1,-0.6445 0,-0.3789 0.3,-0.5742 0.77,-0.5742 h 4.88 c 0.74,0 0.94,0.2812 1.13,0.9453 l 4.32,20.4886 c 1.31,6.211 6.85,18.711 17.01,18.711 2.81,0 4.24,-1.414 4.24,-4.043 0,-1.219 -0.3,-2.539 -0.57,-3.758 l -6.58,-31.1252 c -0.1,-0.1719 -0.1,-0.4648 -0.1,-0.6445 0,-0.3789 0.27,-0.5742 0.74,-0.5742 h 4.91 c 0.76,0 0.93,0.2812 1.13,0.9453 l 6.66,31.3986 c 0.47,2.16 0.94,4.316 0.94,6.582 0,4.969 -3.66,7.508 -8.56,7.508 -8.36,0 -13.53,-5.067 -17.01,-9.961 h -0.2 c 0,0.851 0.3,2.343 0.3,4.23 0,2.91 -1.04,5.731 -1.8,5.731 -0.37,0 -0.74,-0.293 -1.31,-0.465 l -3.38,-1.418 c -0.37,-0.086 -0.84,-0.379 -0.84,-0.75 0.37,-1.875 0.75,-3.75 0.75,-5.625 0,-1.32 -0.28,-3.391 -0.65,-5.363 z m 75.27,40.7072 c 0.1,0.183 0.2,0.465 0.2,0.75 0,1.601 -5.18,3.758 -10.7,3.758 -8.38,0 -15.61,-4.981 -15.61,-13.805 0,-11.574 14.65,-10.922 14.65,-20.0391 0,-4.6992 -3.85,-7.6211 -8.18,-7.6211 -7.04,0 -10.71,3.3906 -11.84,3.3906 -0.47,0 -0.74,-0.2734 -1.02,-0.9375 l -1.52,-3.2031 c -0.08,-0.2734 -0.37,-0.6562 -0.37,-1.1133 0,-1.3203 6.21,-4.414 13.54,-4.414 9.59,0 16.54,5.7226 16.54,15.2226 0,3.9379 -1.51,6.4769 -4.14,8.8279 -4.03,3.77 -10.53,5.645 -10.53,10.727 0,4.043 3.11,6.676 7.91,6.676 5.16,0 7.4,-2.071 8.34,-2.071 0.66,0 0.96,0.383 1.23,0.852 z m 31.86,-33.1955 c -0.18,0.293 -0.47,0.3789 -0.74,0.3789 -1.21,0 -4.51,-3.8554 -10.72,-3.8554 -5.92,0 -8.46,3.6718 -8.46,9.2187 0,10.7223 5,25.6723 16.37,25.6723 2.71,0 4.31,-0.567 6.28,-1.329 0.94,-0.359 1.98,-1.218 2.84,-1.218 0.37,0 0.64,0.379 0.93,0.859 l 1.68,2.715 c 0.3,0.379 0.57,0.937 0.57,1.504 0,1.316 -5.55,3.758 -11.56,3.758 -15.78,0 -24.24,-16.453 -24.24,-32.0472 0,-9.7891 4.12,-15.6953 13.24,-15.6953 7.99,0 15.51,4.6875 15.51,6.0039 0,0.2734 -0.27,0.5586 -0.27,0.7422 z m 9.34,-7.5117 c -0.1,-0.1719 -0.1,-0.4648 -0.1,-0.6445 0,-0.3789 0.27,-0.5742 0.74,-0.5742 h 4.9 c 0.75,0 0.94,0.2812 1.12,0.9453 l 4.33,20.4886 c 1.31,6.211 6.86,18.711 17.01,18.711 2.82,0 4.22,-1.414 4.22,-4.043 0,-1.219 -0.27,-2.539 -0.54,-3.758 l -6.59,-31.1252 c -0.09,-0.1719 -0.09,-0.4648 -0.09,-0.6445 0,-0.3789 0.27,-0.5742 0.76,-0.5742 h 4.86 c 0.76,0 0.96,0.2812 1.13,0.9453 l 6.68,31.3986 c 0.37,2.16 0.92,4.316 0.92,6.582 0,4.969 -3.65,7.508 -8.53,7.508 -8.36,0 -13.54,-5.067 -17.02,-9.961 l -0.19,0.187 c 1.23,2.918 1.7,5.067 2.17,7.051 l 4.98,23.586 c 0.1,0.465 0,0.758 -0.65,0.758 -0.39,0 -0.66,-0.196 -0.86,-0.196 l -4.68,-1.132 c -0.67,-0.184 -0.86,-0.938 -0.96,-1.493 z m 75.56,22.0902 c -1.6,-7.43 -6.85,-18.3402 -14.84,-18.3402 -4.34,0 -5.74,3.293 -5.74,7.9024 0,8.1838 4.51,27.2738 14.84,27.2738 4.51,0 7.62,-3.204 8.46,-4.043 z m 11.1,20.207 c 0.07,0.468 0.17,0.742 0.17,1.035 0,0.281 -0.37,0.566 -0.76,0.566 h -4.12 c -0.57,0 -0.76,-0.566 -0.86,-0.859 l -1.31,-2.891 c -1.78,2.051 -3.75,5.067 -9.86,5.067 -15.24,0 -22.07,-21.707 -22.07,-33.9457 0,-8.164 3.65,-13.7968 10.6,-13.7968 7.82,0 12.41,6.375 14.67,10.039 l 0.2,-0.1757 c -0.39,-0.6641 -0.39,-2.2657 -0.39,-4.1407 0,-2.9101 1.03,-5.7226 1.79,-5.7226 0.37,0 0.74,0.2812 1.31,0.457 l 3.38,1.418 c 0.37,0.0976 0.84,0.3789 0.84,0.7422 -0.37,1.8828 -0.74,3.7578 -0.74,5.6445 0,2.1562 0.56,5.918 0.84,7.4336 z m 35.6,-3.848 c 0.67,0 0.86,0.281 1.23,1.133 l 0.84,2.254 c 0.47,1.308 0.47,1.308 0.47,1.496 0,0.371 -0.27,0.566 -0.74,0.566 h -13.24 l 1.68,8.172 c 0.76,3.488 1.23,9.328 7.81,9.328 4.12,0 7.52,-2.265 8.36,-2.265 0.27,0 0.56,0.285 0.64,0.468 l 1.7,4.043 c 0,0.086 0.1,0.176 0.1,0.282 0,1.117 -5.35,2.91 -10.06,2.91 -12.4,0 -14,-8.641 -15.14,-13.914 l -1.87,-9.024 h -6.58 c -0.84,0 -1.04,-0.285 -1.21,-1.133 l -0.47,-2.257 c -0.3,-1.305 -0.3,-1.305 -0.3,-1.493 0,-0.371 0.3,-0.566 0.77,-0.566 h 6.58 l -8.09,-41.9257 c -0.66,-3.4844 -2.17,-10.9063 -9.88,-10.9063 -2.72,0 -5.45,0.8477 -5.82,0.8477 -0.27,0 -0.57,-0.293 -0.67,-0.5743 l -1.3,-3.8398 c -0.1,-0.1836 -0.1,-0.4688 -0.1,-0.6523 0,-1.1329 4.04,-1.7891 7.15,-1.7891 14.1,0 16.44,10.9883 17.48,16.5351 l 7.99,42.3047 z m 23.32,-33.0976 c -0.1,0.4687 -0.27,0.664 -0.66,0.664 -1.31,0 -4.24,-2.7304 -8.73,-2.7304 -3.11,0 -4.44,0.9336 -4.44,4.4218 0,1.125 0.2,3.293 0.47,4.6954 l 5.55,26.0468 h 11.56 c 0.76,0 0.94,0.098 1.23,0.754 l 1.51,3.102 c 0.19,0.46 0.37,0.753 0.37,1.027 0,0.281 -0.28,0.566 -0.74,0.566 h -12.8 l 3.01,13.907 c 0.1,0.378 0.2,0.75 0.2,1.035 0,0.285 -0.1,0.566 -0.57,0.566 -0.2,0 -0.47,-0.09 -0.67,-0.09 l -4.98,-1.414 c -0.66,-0.187 -0.74,-0.383 -0.93,-1.035 l -2.74,-12.969 h -6.83 c -0.84,0 -1.04,-0.285 -1.23,-1.133 l -0.47,-2.257 c -0.28,-1.305 -0.28,-1.305 -0.28,-1.493 0,-0.371 0.28,-0.566 0.75,-0.566 h 6.85 l -5.53,-26.0468 c -0.29,-1.5039 -0.86,-4.043 -0.86,-5.5352 0,-6.1992 3.38,-9.3945 8.36,-9.3945 6.12,0 13.27,2.3437 13.27,4.2187 0,0.2813 -0.2,0.75 -0.2,1.0352 z m 37.99,2.6367 c -0.2,0.2852 -0.47,0.5664 -0.86,0.5664 -1.31,0 -5.08,-4.5195 -13.44,-4.5195 -6.11,0 -8.75,3.6718 -8.75,10.352 0,0.761 0.1,1.503 0.1,2.351 8.28,0.098 28.95,0.098 28.95,16.445 0,6.965 -4.03,12.032 -12.41,12.032 -14,0 -23.77,-14.571 -23.77,-30.547 0,-10.4494 4.59,-17.1955 15.22,-17.1955 9.12,0 17.4,5.5273 17.4,6.6601 0,0.1953 -0.1,0.2852 -0.19,0.4688 z m -22.21,14.5629 c 1.06,4.609 4.07,16.843 14.79,16.843 4.61,0 6.85,-2.539 6.85,-6.492 0,-10.351 -16.44,-10.351 -21.64,-10.351 m 33.68,-22.5512 c -0.1,-0.1719 -0.1,-0.4648 -0.1,-0.6445 0,-0.3789 0.27,-0.5742 0.74,-0.5742 h 4.9 c 0.74,0 0.94,0.2812 1.13,0.9453 l 4.32,20.4886 c 1.31,6.211 6.86,18.711 17.01,18.711 2.83,0 4.24,-1.414 4.24,-4.043 0,-1.219 -0.29,-2.539 -0.57,-3.758 l -6.58,-31.1252 c -0.09,-0.1719 -0.09,-0.4648 -0.09,-0.6445 0,-0.3789 0.29,-0.5742 0.76,-0.5742 h 4.88 c 0.74,0 0.94,0.2812 1.13,0.9453 l 6.66,31.3986 c 0.47,2.16 0.94,4.316 0.94,6.582 0,4.969 -3.65,7.508 -8.54,7.508 -8.37,0 -13.55,-5.067 -17.03,-9.961 h -0.19 c 0,0.851 0.29,2.343 0.29,4.23 0,2.91 -1.03,5.731 -1.8,5.731 -0.37,0 -0.74,-0.293 -1.3,-0.465 l -3.38,-1.418 c -0.37,-0.086 -0.84,-0.379 -0.84,-0.75 0.37,-1.875 0.74,-3.75 0.74,-5.625 0,-1.32 -0.27,-3.391 -0.65,-5.363 l -6.67,-31.5942"
         style="fill:#ffffff;fill-opacity:1;fill-rule:nonzero;stroke:none"
         id="path60" />
    </g>
  </g>
</svg>
